<?xml version="1.0" standalone="no"?>
<!DOCTYPE svg PUBLIC "-//W3C//DTD SVG 20010904//EN"
 "http://www.w3.org/TR/2001/REC-SVG-20010904/DTD/svg10.dtd">
<svg version="1.0" xmlns="http://www.w3.org/2000/svg"
 width="2249.000000pt" height="2249.000000pt" viewBox="0 0 2249.000000 2249.000000"
 preserveAspectRatio="xMidYMid meet">
<metadata>
Created by potrace 1.14, written by Peter Selinger 2001-2017
</metadata>
<g transform="translate(0.000000,2249.000000) scale(0.100000,-0.100000)"
fill="#000000" stroke="none">
<path d="M11505 21280 c-115 -38 -457 -148 -760 -245 -1543 -495 -2198 -728
-2899 -1030 -974 -419 -1781 -920 -2666 -1654 -474 -394 -986 -902 -1387
-1378 -665 -789 -1214 -1697 -1591 -2634 -566 -1406 -765 -2887 -581 -4329 81
-639 244 -1271 479 -1867 85 -215 89 -222 90 -163 0 25 5 158 10 295 102 2638
765 4430 2010 5432 606 488 1360 778 2270 873 224 24 332 25 487 5 337 -44
628 -135 898 -280 736 -395 1235 -1158 1379 -2110 35 -226 41 -318 40 -620 0
-328 -10 -448 -59 -745 -121 -729 -413 -1448 -866 -2139 -49 -74 -88 -136 -86
-136 1 -1 252 286 557 638 305 353 971 1121 1479 1707 508 586 925 1066 926
1068 1 1 202 -224 446 -500 244 -277 615 -696 824 -933 209 -236 690 -781
1069 -1210 379 -429 698 -789 709 -800 l20 -20 -18 30 c-11 17 -54 84 -96 150
-214 334 -440 780 -574 1130 -171 448 -274 863 -332 1335 -25 206 -25 749 1
935 44 320 106 575 201 820 354 917 1105 1513 2090 1661 125 19 226 15 475
-17 1324 -168 2335 -720 3029 -1652 586 -787 946 -1818 1096 -3129 53 -468 67
-711 74 -1312 l6 -520 54 140 c624 1620 725 3432 287 5172 -820 3256 -3370
5948 -6531 6893 -819 245 -1640 368 -2477 370 -153 1 -278 3 -278 5 0 1 95
190 211 419 116 228 207 415 202 414 -4 0 -102 -31 -218 -69z"/>
<path d="M5480 11463 c-51 -8 -175 -36 -222 -50 l-49 -14 43 -49 c92 -105 143
-216 156 -342 30 -290 -122 -538 -396 -646 -60 -23 -80 -26 -202 -26 -116 -1
-144 3 -200 23 -76 27 -160 76 -213 125 l-38 36 -9 -26 c-55 -145 -71 -464
-31 -651 114 -545 522 -959 1061 -1078 118 -26 376 -31 501 -10 566 94 1004
517 1126 1085 25 120 25 410 0 530 -105 491 -449 879 -919 1034 -147 49 -265
66 -437 65 -80 -1 -157 -3 -171 -6z"/>
<path d="M16525 11454 c-92 -16 -215 -51 -215 -61 0 -4 18 -25 39 -48 52 -53
105 -141 133 -224 19 -56 23 -86 22 -191 0 -139 -18 -204 -85 -316 -74 -123
-230 -236 -371 -269 -75 -17 -206 -19 -280 -4 -75 16 -183 69 -255 128 l-62
50 -21 -90 c-33 -140 -43 -252 -36 -389 22 -445 252 -844 623 -1084 224 -144
469 -216 737 -216 224 0 411 42 601 134 392 192 674 561 752 986 25 139 23
384 -5 512 -123 567 -555 986 -1116 1083 -111 19 -352 18 -461 -1z"/>
<path d="M11270 11379 c0 -11 -236 -290 -557 -657 -792 -905 -1157 -1323
-1832 -2097 -327 -374 -602 -689 -613 -701 l-19 -21 403 -166 c222 -92 579
-239 793 -327 215 -89 606 -251 870 -360 264 -109 591 -244 728 -300 l247
-102 188 77 c103 43 250 104 327 135 77 32 311 128 520 215 209 86 661 273
1005 415 344 142 709 293 813 335 168 70 186 80 174 94 -19 21 -507 581 -1237
1416 -581 666 -1226 1403 -1588 1818 -100 115 -182 214 -182 222 0 7 -9 15
-20 18 -15 4 -20 0 -20 -14z"/>
<path d="M8310 7452 c0 -5 24 -31 53 -58 49 -46 687 -662 2226 -2152 382 -370
698 -671 702 -670 7 3 757 724 1204 1158 110 107 333 323 495 480 162 156 367
354 455 440 226 220 742 719 790 763 48 44 39 46 -51 8 -69 -29 -335 -140
-934 -391 -173 -73 -495 -208 -715 -300 -220 -92 -590 -247 -821 -344 l-421
-176 -624 261 c-687 288 -1104 462 -1849 774 -272 114 -498 209 -502 212 -5 2
-8 0 -8 -5z"/>
</g>
</svg>
